{"title":"Chop 2011 BRRip XViD juggs","uid":8218636,"size":743631569,"categoryP":"video","categoryS":"movies","magnet":"?xt=urn:btih:05a2426b82691bb0084ffb904966c1a81cae4d28&amp;dn=Chop+2011+BRRip+XViD+juggs&amp;tr=udp%3A%2F%2Ftracker.openbittorrent.com%3A80&amp;tr=udp%3A%2F%2Fopen.demonii.com%3A1337&amp;tr=udp%3A%2F%2Ftracker.coppersurfer.tk%3A6969&amp;tr=udp%3A%2F%2Fexodus.desync.com%3A6969","seeders":0,"leechers":1,"uploader":"juggs99","files":3,"time":1362418527,"description":"Source : VETO\n\nFormat : AVI\nFormat/Info : Audio Video Interleave\nFile size : 700 MiB\nDuration : 1h 14mn\nOverall bit rate : 1 318 Kbps\nWriting library : VirtualDub build 32842/release\n\nVideo\nID : 0\nFormat : MPEG-4 Visual\nFormat profile : Advanced Simple@L5\nFormat settings, BVOP : 4\nFormat settings, QPel : No\nFormat settings, GMC : No warppoints\nFormat settings, Matrix : Default (H.263)\nMuxing mode : Packed bitstream\nCodec ID : XVID\nCodec ID/Hint : XviD\nDuration : 1h 14mn\nBit rate : 1 180 Kbps\nWidth : 640 pixels\nHeight : 352 pixels\nDisplay aspect ratio : 16:9\nFrame rate : 25.000 fps\nColor space : YUV\nChroma subsampling : 4:2:0\nBit depth : 8 bits\nScan type : Progressive\nCompression mode : Lossy\nBits/(Pixel*Frame) : 0.210\nStream size : 627 MiB (90%)\nWriting library : XviD 64\n\nAudio\nID : 1\nFormat : MPEG Audio\nFormat version : Version 1\nFormat profile : Layer 3\nCodec ID : 55\nCodec ID/Hint : MP3\nDuration : 1h 14mn\nBit rate mode : Constant\nBit rate : 128 Kbps\nChannel(s) : 2 channels\nSampling rate : 44.1 KHz\nCompression mode : Lossy\nStream size : 68.0 MiB (10%)\nAlignment : Split accross interleaves\nInterleave, duration : 40 ms (1.00 video frame)\nInterleave, preload duration : 500 ms\nWriting library : LAME3.99r\nEncoding settings : -m s -V 4 -q 3 -lowpass 17 -b 128\n\n\nPlot\nLance Reed is forced by a psychotic stranger to confront his duplicitous past. Seeking retribution for a crime, the man forces Lance to reveal his inner most secrets by systematically removing his limbs.\n\n &lt;a href=&quot;\nhttp://www.shotpix.com/images/51166929551864059492.png&quot; rel=&quot;nofollow&quot; target=&quot;_NEW&quot;&gt;\nhttp://www.shotpix.com/images/51166929551864059492.png&lt;/a&gt; &lt;a href=&quot;\nhttp://www.shotpix.com/images/10306847723020616509.png&quot; rel=&quot;nofollow&quot; target=&quot;_NEW&quot;&gt;\nhttp://www.shotpix.com/images/10306847723020616509.png&lt;/a&gt; &lt;a href=&quot;\nhttp://www.shotpix.com/images/79552007367893451180.png&quot; rel=&quot;nofollow&quot; target=&quot;_NEW&quot;&gt;\nhttp://www.shotpix.com/images/79552007367893451180.png&lt;/a&gt;","torrent":{"xt":"urn:btih:05a2426b82691bb0084ffb904966c1a81cae4d28","amp;dn":"Chop+2011+BRRip+XViD+juggs","amp;tr":["udp%3A%2F%2Ftracker.openbittorrent.com%3A80","udp%3A%2F%2Fopen.demonii.com%3A1337","udp%3A%2F%2Ftracker.coppersurfer.tk%3A6969","udp%3A%2F%2Fexodus.desync.com%3A6969"],"infoHash":"05a2426b82691bb0084ffb904966c1a81cae4d28","infoHashBuffer":{"type":"Buffer","data":[5,162,66,107,130,105,27,176,8,79,251,144,73,102,193,168,28,174,77,40]},"announce":[],"urlList":[]}}